<?xml version="1.0" standalone="no"?><!DOCTYPE svg PUBLIC "-//W3C//DTD SVG 1.1//EN" "http://www.w3.org/Graphics/SVG/1.1/DTD/svg11.dtd"><svg t="1655635548647" class="icon" viewBox="0 0 1024 1024" version="1.1" xmlns="http://www.w3.org/2000/svg" p-id="30454" xmlns:xlink="http://www.w3.org/1999/xlink" width="200" height="200"><defs><style type="text/css">@font-face { font-family: feedback-iconfont; src: url("//at.alicdn.com/t/font_1031158_u69w8yhxdu.woff2?t=1630033759944") format("woff2"), url("//at.alicdn.com/t/font_1031158_u69w8yhxdu.woff?t=1630033759944") format("woff"), url("//at.alicdn.com/t/font_1031158_u69w8yhxdu.ttf?t=1630033759944") format("truetype"); }
</style></defs><path d="M853.32992 273.07008C853.32992 178.81088 776.92928 102.4 682.67008 102.4 588.40064 102.4 512 178.81088 512 273.07008v102.4c-147.67104 0-279.6032-67.06176-367.26784-172.27776-88.86272 195.19488-33.19808 429.21984 139.5712 562.57536-48.30208 43.30496-111.9744 69.8368-181.90336 69.8368C179.83488 889.66144 273.8688 921.6 375.47008 921.6c263.95648 0 477.85984-213.99552 477.85984-477.87008v-102.4L921.6 273.07008h-68.27008z m-68.25984 170.65984c0 225.87392-183.73632 409.6-409.6 409.6-27.8016 0-55.2448-2.79552-82.00192-8.27392a347.86304 347.86304 0 0 0 36.4032-28.45696l61.06112-54.74304-64.93184-50.13504c-119.63392-92.37504-174.39744-240.14848-149.32992-383.09888A544.41984 544.41984 0 0 0 512 443.71968h68.27008V273.07008c0-56.46336 45.9264-102.4 102.4-102.4 56.46336 0 102.4 45.93664 102.4 102.4v170.65984z" p-id="30455" fill="#ffffff"></path><path d="M733.87008 273.07008a34.14016 34.14016 0 1 1-68.25984-0.02048 34.14016 34.14016 0 0 1 68.25984 0.02048z" p-id="30456" fill="#ffffff"></path></svg>